<?xml version="1.0" standalone="no"?>
<!DOCTYPE svg PUBLIC "-//W3C//DTD SVG 20010904//EN"
 "http://www.w3.org/TR/2001/REC-SVG-20010904/DTD/svg10.dtd">
<svg version="1.0" xmlns="http://www.w3.org/2000/svg"
 width="900.000000pt" height="386.000000pt" viewBox="0 0 900.000000 386.000000"
 preserveAspectRatio="xMidYMid meet">
<metadata>
Created by potrace 1.16, written by Peter Selinger 2001-2019
</metadata>
<g transform="translate(0.000000,386.000000) scale(0.100000,-0.100000)"
fill="#0a0a0a" stroke="none">
<path d="M601 3644 c-193 -52 -345 -213 -381 -404 -5 -25 -10 -629 -11 -1341
l-2 -1296 22 -66 c46 -137 135 -236 271 -301 l65 -31 1500 0 1500 0 57 23
c134 54 240 170 296 322 l27 75 3 1270 c2 865 -1 1292 -8 1340 -24 158 -128
294 -279 368 l-86 41 -165 6 c-91 4 -748 7 -1460 8 -1110 1 -1303 -1 -1349
-14z m2961 -204 c95 -36 165 -122 188 -230 8 -40 10 -393 8 -1320 l-3 -1265
-24 -52 c-27 -61 -92 -125 -159 -156 l-47 -22 -1445 4 c-1386 3 -1447 4 -1495
22 -58 22 -126 82 -154 137 -42 83 -42 92 -39 1397 l3 1250 29 63 c32 69 97
136 168 171 l43 21 1437 0 c1411 0 1438 0 1490 -20z"/>
<path d="M946 3129 c-74 -11 -127 -42 -194 -113 -105 -111 -122 -184 -122
-537 0 -330 12 -366 180 -510 233 -201 280 -243 330 -294 l55 -56 3 -239 c3
-264 -1 -285 -58 -315 -39 -20 -79 -19 -117 5 -65 39 -68 51 -68 285 l0 210
-160 0 -160 0 0 -280 c1 -269 2 -282 24 -338 32 -82 96 -156 162 -189 126 -64
390 -60 536 9 80 37 141 128 162 240 15 80 24 576 12 702 -15 165 -31 194
-178 318 -241 203 -357 309 -375 343 -15 29 -18 58 -18 190 0 137 2 159 20
188 42 68 134 79 191 23 33 -34 43 -95 38 -243 l-4 -103 163 -3 164 -3 -4 213
c-4 195 -6 218 -27 272 -72 182 -278 265 -555 225z"/>
<path d="M1982 3120 c-56 -12 -152 -64 -207 -112 -28 -25 -58 -66 -81 -113
l-37 -74 -9 -238 c-10 -264 -3 -353 36 -438 38 -82 99 -149 229 -251 67 -53
157 -131 199 -172 99 -97 101 -107 96 -382 -3 -185 -5 -208 -24 -240 -39 -67
-130 -72 -190 -9 l-29 30 -5 222 -5 222 -149 3 c-113 2 -151 -1 -158 -10 -11
-19 -10 -333 2 -463 13 -131 37 -191 106 -265 91 -97 232 -142 383 -121 195
26 321 118 376 276 23 66 29 251 18 565 -8 213 -12 251 -29 290 -23 49 -116
144 -284 287 -123 106 -210 195 -236 243 -14 27 -19 63 -22 153 -6 161 2 203
43 244 37 37 81 43 140 19 58 -25 67 -57 63 -230 l-3 -151 145 -1 c80 0 153 1
163 3 15 4 17 21 17 183 0 253 -17 318 -109 410 -51 51 -128 91 -206 108 -74
16 -184 22 -233 12z"/>
<path d="M3000 3111 c-168 -28 -276 -109 -332 -251 -19 -49 -22 -78 -26 -256
-4 -233 9 -396 38 -461 11 -25 36 -67 56 -95 43 -58 203 -202 255 -228 38 -20
176 -156 196 -195 9 -16 13 -93 13 -258 1 -267 -3 -287 -68 -314 -48 -20 -100
-5 -140 42 -38 43 -44 87 -40 300 l3 160 -155 0 -155 0 3 -205 c4 -323 25
-418 113 -515 91 -99 216 -143 357 -125 132 17 198 46 280 124 63 59 106 137
121 221 24 127 6 693 -24 778 -24 66 -96 141 -283 294 -174 142 -224 191 -247
239 -18 38 -21 276 -5 336 16 57 60 88 127 88 47 0 59 -4 84 -29 32 -33 32
-33 30 -216 -1 -66 2 -126 7 -133 6 -9 45 -12 158 -10 l149 3 0 205 c0 191 -2
209 -23 267 -42 108 -110 169 -240 212 -71 23 -185 33 -252 22z"/>
<path d="M4560 3221 c-53 -16 -110 -52 -133 -83 -48 -65 -61 -156 -32 -225 32
-76 62 -94 233 -139 143 -37 172 -56 172 -115 0 -29 -7 -43 -31 -63 -27 -23
-40 -26 -103 -26 -87 0 -135 25 -151 78 l-9 32 -78 0 c-87 0 -88 -1 -66 -71
16 -56 69 -112 130 -140 47 -21 68 -24 173 -24 105 0 126 3 168 24 26 13 60
39 76 58 77 94 64 244 -27 306 -47 33 -71 42 -196 72 -83 20 -106 30 -128 55
-31 34 -35 58 -13 99 19 38 63 55 127 49 40 -4 57 -11 75 -32 13 -15 23 -36
23 -47 0 -17 7 -19 80 -19 l80 0 0 28 c-1 41 -33 104 -69 135 -18 14 -55 33
-83 42 -54 16 -175 19 -218 6z"/>
<path d="M6545 3217 c-97 -32 -159 -89 -203 -185 -20 -45 -26 -77 -30 -157 -9
-206 59 -336 214 -407 69 -32 204 -31 289 2 77 30 165 115 183 178 7 23 10 47
7 52 -3 6 -39 10 -80 10 -68 0 -74 -2 -80 -22 -26 -84 -164 -134 -259 -94 -70
29 -116 127 -116 245 0 114 34 189 104 232 38 23 131 26 180 5 34 -14 69 -61
81 -108 7 -28 8 -28 87 -28 l80 0 -7 38 c-18 98 -74 175 -160 220 -42 22 -65
26 -150 29 -64 2 -115 -2 -140 -10z"/>
<path d="M7353 3212 c-80 -29 -130 -67 -172 -132 -53 -81 -75 -168 -69 -267
10 -157 85 -271 219 -333 63 -29 84 -34 149 -34 41 0 94 6 117 12 96 28 190
120 229 225 29 78 27 241 -5 319 -29 75 -106 159 -177 194 -74 36 -213 44
-291 16z m213 -146 c84 -39 124 -117 124 -240 0 -87 -21 -137 -78 -188 -142
-128 -343 -11 -344 201 -1 189 143 299 298 227z"/>
<path d="M5100 2845 c0 -206 -1 -378 -2 -382 -2 -5 32 -9 75 -11 l77 -3 0 386
0 385 -75 0 -75 0 0 -375z"/>
<path d="M5420 2835 l0 -385 240 0 241 0 -3 68 -3 67 -157 3 -158 3 -2 112 c0
61 -2 155 -4 207 -2 52 -3 143 -3 203 l-1 107 -75 0 -75 0 0 -385z"/>
<path d="M6020 2835 l0 -385 75 0 75 0 0 385 0 385 -75 0 -75 0 0 -385z"/>
<path d="M7980 2835 l0 -386 73 3 72 3 5 245 5 245 80 -123 c44 -67 116 -178
160 -245 l80 -122 77 -2 c87 -1 86 -2 83 77 -1 25 -2 190 -3 368 l-2 322 -75
0 -75 0 0 -247 c0 -151 -4 -243 -9 -237 -5 5 -77 115 -159 244 l-150 235 -81
3 -81 3 0 -386z"/>
<path d="M4573 2100 c-44 -9 -91 -31 -136 -62 -57 -40 -90 -154 -68 -235 24
-88 75 -120 260 -163 110 -26 151 -55 151 -105 0 -18 -3 -41 -6 -50 -11 -27
-60 -45 -124 -45 -98 0 -140 26 -159 98 -6 22 -12 24 -79 27 -40 2 -75 -1 -78
-6 -11 -18 18 -109 48 -150 43 -60 119 -92 232 -97 160 -8 256 31 301 122 48
97 25 216 -53 269 -37 26 -141 63 -239 87 -74 17 -103 42 -103 89 0 47 21 76
66 91 65 22 144 -11 158 -65 6 -24 9 -25 86 -25 89 0 90 0 69 73 -30 108 -183
177 -326 147z"/>
<path d="M5037 2083 c-4 -3 -7 -35 -7 -70 l0 -63 109 0 c94 0 110 -2 115 -17
4 -10 7 -121 6 -248 -1 -126 -1 -260 -1 -297 l1 -68 80 0 80 0 0 315 0 315
110 0 110 0 0 70 0 70 -298 0 c-164 0 -302 -3 -305 -7z"/>
<path d="M5770 1705 l0 -385 260 0 260 0 0 65 0 65 -179 0 -179 0 -7 85 c-4
46 -5 91 -1 100 4 13 31 15 166 15 l160 0 0 65 0 65 -162 2 -163 3 0 85 0 85
173 3 173 2 -3 63 -3 62 -247 3 -248 2 0 -385z"/>
<path d="M6437 2083 c-4 -3 -7 -177 -7 -385 l0 -378 260 0 260 0 0 65 0 65
-180 0 -180 0 0 100 0 100 160 0 160 0 0 65 0 65 -160 0 -160 0 0 90 0 90 170
0 170 0 0 65 0 65 -243 0 c-134 0 -247 -3 -250 -7z"/>
<path d="M7099 2083 c-1 -6 0 -608 1 -756 0 -4 107 -6 238 -5 l237 3 0 65 0
65 -157 3 -158 3 -2 182 c-1 100 -2 241 -2 312 l-1 130 -77 3 c-43 2 -78 -1
-79 -5z"/>
<path d="M4464 951 c-106 -48 -122 -184 -28 -246 16 -11 64 -28 106 -38 115
-27 152 -79 91 -127 -38 -30 -121 -24 -158 10 -14 13 -25 29 -25 35 0 13 -77
28 -93 18 -12 -7 3 -64 26 -97 49 -69 201 -93 287 -45 65 36 85 69 85 139 0
79 -31 113 -130 141 -163 46 -165 47 -151 105 16 63 146 65 169 3 10 -26 16
-29 59 -29 42 0 48 3 48 21 0 37 -39 87 -84 108 -55 27 -145 28 -202 2z"/>
<path d="M5025 951 c-46 -21 -100 -78 -123 -130 -10 -23 -16 -66 -16 -116 0
-67 4 -88 26 -131 48 -92 121 -136 224 -136 109 -1 200 62 239 165 24 63 17
185 -13 244 -26 50 -84 100 -132 113 -57 16 -160 12 -205 -9z m190 -90 c69
-38 96 -162 54 -249 -27 -55 -70 -82 -129 -82 -145 0 -211 188 -109 305 48 55
115 64 184 26z"/>
<path d="M5550 705 l0 -265 45 0 44 0 3 108 3 107 100 5 100 5 0 40 0 40 -97
3 -98 3 -1 49 c-1 28 -2 56 -3 63 -1 9 32 13 119 17 l120 5 0 40 0 40 -167 3
-168 2 0 -265z"/>
<path d="M5983 953 c-2 -6 -3 -26 -1 -44 l3 -32 78 2 77 2 0 -215 0 -216 50 0
50 0 0 215 0 215 80 0 80 0 0 43 0 42 -206 0 c-147 0 -208 -3 -211 -12z"/>
<path d="M6520 968 c0 -2 35 -120 78 -263 l77 -260 44 0 c51 0 37 -27 112 223
23 78 45 142 48 142 6 0 61 -174 97 -307 l17 -63 44 0 c38 0 45 3 54 27 19 51
139 470 139 487 0 14 -9 17 -52 14 l-53 -3 -44 -172 c-24 -95 -47 -173 -51
-173 -4 0 -28 71 -54 158 -26 86 -49 163 -51 170 -3 7 -21 12 -43 12 l-38 0
-55 -175 c-29 -96 -56 -175 -60 -175 -7 0 -31 79 -64 215 -36 146 -35 145 -95
145 -28 0 -50 -1 -50 -2z"/>
<path d="M7475 958 c-80 -220 -185 -511 -185 -514 0 -2 24 -4 53 -4 l52 0 20
63 20 62 99 0 100 0 20 -62 20 -63 53 0 c29 0 53 2 53 4 0 4 -127 372 -170
494 -12 31 -13 32 -71 32 -39 0 -61 -4 -64 -12z m98 -201 c15 -50 28 -95 27
-99 0 -5 -29 -8 -65 -8 -50 0 -65 3 -65 14 0 22 61 186 68 186 4 0 20 -42 35
-93z"/>
<path d="M7930 714 c0 -140 0 -257 0 -261 0 -5 21 -8 48 -8 l47 0 0 95 1 95
29 0 c26 0 38 -12 100 -97 l70 -98 52 0 c29 0 53 4 53 8 0 5 -31 50 -70 101
-38 50 -70 94 -70 96 0 2 20 13 45 25 55 26 79 67 78 131 -1 78 -50 143 -117
153 -17 3 -84 7 -148 10 l-118 4 0 -254z m255 141 c31 -30 33 -77 5 -105 -16
-16 -33 -20 -89 -20 l-69 0 -4 68 c-2 37 -2 70 0 75 2 4 32 7 68 7 56 0 68 -4
89 -25z"/>
<path d="M8460 705 l0 -265 175 0 175 0 0 45 0 44 -122 3 -123 3 0 65 0 65
108 0 107 0 0 42 0 42 -107 3 -108 3 -3 63 -3 62 121 0 120 0 0 45 0 45 -170
0 -170 0 0 -265z"/>
</g>
</svg>
