<?xml version="1.0" standalone="no"?>
<!DOCTYPE svg PUBLIC "-//W3C//DTD SVG 20010904//EN"
 "http://www.w3.org/TR/2001/REC-SVG-20010904/DTD/svg10.dtd">
<svg version="1.0" xmlns="http://www.w3.org/2000/svg"
 width="900.000000pt" height="386.000000pt" viewBox="0 0 900.000000 386.000000"
 preserveAspectRatio="xMidYMid meet">
<metadata>
Created by potrace 1.16, written by Peter Selinger 2001-2019
</metadata>
<g transform="translate(0.000000,386.000000) scale(0.100000,-0.100000)"
fill="#FAFAFA" stroke="none">
<path d="M0 1930 l0 -1930 4500 0 4500 0 0 1930 0 1930 -4500 0 -4500 0 0
-1930z m3551 1716 c181 -39 339 -186 385 -360 11 -42 14 -280 14 -1341 0
-1419 3 -1340 -61 -1471 -35 -70 -108 -156 -168 -198 -22 -16 -70 -39 -106
-52 l-66 -24 -1475 0 c-1067 -1 -1486 3 -1517 11 -120 32 -255 147 -306 261
-56 126 -54 66 -48 1463 7 1415 3 1333 68 1456 60 112 160 196 293 245 l61 23
1430 0 c1190 1 1441 -2 1496 -13z m1204 -421 c33 -9 76 -27 96 -40 41 -27 79
-95 79 -143 l0 -32 -78 0 -79 0 -15 39 c-13 33 -22 41 -57 51 -86 23 -161 -16
-161 -85 0 -55 32 -78 147 -105 154 -36 224 -75 258 -141 17 -32 20 -127 5
-180 -12 -43 -64 -99 -115 -123 -94 -45 -274 -40 -366 11 -72 39 -119 109
-119 178 l0 35 79 0 c79 0 79 0 86 -29 12 -56 72 -91 153 -91 93 0 149 54 123
117 -16 40 -34 48 -168 84 -140 36 -181 57 -216 112 -23 34 -27 52 -27 109 0
48 6 80 19 106 59 115 204 166 356 127z m2074 -21 c31 -14 70 -39 88 -56 41
-39 85 -138 81 -181 -3 -32 -3 -32 -63 -35 -81 -4 -105 3 -105 32 0 34 -40 88
-80 108 -45 23 -114 22 -166 -1 -71 -32 -107 -107 -108 -226 -2 -184 95 -289
236 -256 63 14 101 41 122 86 18 38 7 35 149 39 54 2 19 -113 -55 -180 -22
-20 -66 -48 -97 -63 -49 -23 -69 -26 -161 -26 -130 0 -184 21 -260 101 -61 64
-88 123 -103 226 -26 178 48 357 175 424 93 50 249 53 347 8z m801 3 c68 -25
146 -101 182 -178 100 -209 20 -467 -172 -558 -47 -22 -69 -26 -150 -26 -86 0
-101 3 -162 32 -200 95 -279 331 -183 548 79 179 285 256 485 182z m514 8 c8
-8 49 -70 91 -137 132 -210 198 -312 213 -328 12 -13 13 18 12 220 -2 129 -2
241 -1 248 1 10 21 12 79 10 l77 -3 0 -385 0 -385 -82 -3 -82 -3 -53 83 c-30
46 -98 154 -153 240 -55 86 -103 157 -107 158 -5 0 -8 -108 -8 -240 l0 -241
-75 3 -76 3 1 379 c0 208 3 383 6 387 9 16 141 11 158 -6z m-2889 -380 l0
-380 -82 -3 -83 -3 0 386 0 386 83 -3 82 -3 0 -380z m325 70 l0 -315 160 0
160 0 0 -70 0 -70 -242 2 -243 3 -3 383 -2 382 85 0 85 0 0 -315z m600 -70 l0
-385 -85 0 -85 0 0 385 0 385 85 0 85 0 0 -385z m-1380 -761 c29 -16 63 -45
76 -64 26 -39 45 -112 34 -129 -4 -8 -34 -11 -86 -9 -70 3 -79 5 -82 23 -2 11
-11 31 -21 44 -15 20 -30 25 -79 29 -57 4 -63 2 -92 -26 -29 -30 -37 -62 -24
-97 9 -23 49 -41 144 -64 205 -52 274 -112 274 -241 0 -94 -39 -161 -116 -201
-88 -45 -278 -45 -366 0 -77 39 -132 124 -132 204 l0 27 79 0 79 0 7 -30 c11
-49 40 -77 95 -90 137 -33 236 44 165 128 -19 23 -43 35 -107 51 -168 45 -189
52 -224 84 -47 40 -64 82 -64 152 0 94 42 165 125 207 65 34 85 38 176 34 72
-3 95 -8 139 -32z m2458 -296 l2 -318 163 -2 162 -3 3 -59 c2 -32 -1 -63 -6
-68 -4 -4 -116 -9 -248 -9 l-239 -1 -3 379 c-1 208 0 384 3 391 3 9 26 12 82
10 l78 -3 3 -317z m-1613 237 l0 -70 -112 4 -113 3 -2 -318 -3 -319 -80 0 -80
0 -3 318 -2 319 -108 -3 -107 -3 -3 72 -3 72 308 -2 308 -3 0 -70z m629 59
c10 -26 7 -102 -5 -109 -5 -4 -84 -6 -175 -5 l-164 1 0 -90 0 -91 163 -2 162
-3 3 -62 3 -63 -166 0 -165 0 0 -100 0 -100 185 0 185 0 0 -65 c0 -59 -2 -65
-22 -70 -13 -3 -133 -4 -268 -2 l-245 2 0 375 c-1 206 1 381 3 388 3 9 62 12
252 12 217 0 249 -2 254 -16z m664 -51 l3 -63 -176 0 -175 0 0 -90 0 -90 163
-2 162 -3 0 -60 0 -60 -163 -3 -163 -2 3 -98 3 -97 180 -5 180 -5 3 -59 c2
-33 -1 -62 -7 -65 -5 -3 -125 -6 -268 -6 l-258 0 1 85 c1 47 2 221 3 388 l1
302 253 -2 252 -3 3 -62z m-2303 -1054 c58 -16 115 -77 115 -123 l0 -36 -50 0
c-45 0 -50 2 -56 25 -8 34 -41 55 -85 55 -66 0 -115 -66 -74 -100 7 -6 49 -20
92 -31 144 -36 187 -73 185 -159 -1 -71 -30 -112 -98 -146 -49 -24 -63 -26
-125 -21 -111 9 -176 57 -186 138 l-6 39 51 0 c47 0 52 -2 58 -25 10 -39 41
-55 106 -55 45 0 63 5 78 20 45 45 12 84 -94 111 -44 11 -93 27 -108 35 -65
33 -86 123 -47 194 42 74 143 107 244 79z m632 -20 c25 -12 58 -39 74 -62 129
-179 28 -435 -180 -454 -157 -14 -281 103 -281 268 0 137 70 241 184 270 50
13 154 2 203 -22z m3531 19 c16 -16 15 -85 0 -91 -7 -3 -61 -3 -120 1 l-108 5
0 -61 0 -61 108 -3 107 -3 0 -45 0 -45 -107 -3 -108 -3 0 -59 0 -59 118 -3
117 -3 3 -47 3 -48 -175 0 -176 0 0 265 0 264 158 4 c86 1 159 4 163 5 3 1 10
-3 17 -10z m-2908 -43 l0 -45 -120 0 -120 0 0 -65 0 -65 100 0 100 0 0 -45 0
-45 -100 0 -100 0 0 -110 0 -110 -49 0 -49 0 -4 243 c-2 133 -1 252 1 265 3
22 5 22 172 22 l169 0 0 -45z m515 -5 l0 -45 -84 -3 -84 -3 5 -202 c3 -111 3
-208 1 -214 -3 -8 -24 -13 -54 -13 l-49 0 0 215 0 215 -80 0 -80 0 0 50 0 50
213 -2 212 -3 0 -45z m252 -45 c54 -207 68 -255 75 -255 4 0 8 6 8 13 0 7 20
76 44 153 24 76 47 149 51 162 6 20 12 23 48 20 l40 -3 39 -125 c21 -69 43
-144 50 -167 7 -24 15 -43 18 -43 4 0 12 24 19 53 6 28 26 105 43 170 l31 117
58 0 c33 0 59 -3 59 -7 0 -9 -75 -269 -117 -405 l-36 -118 -49 0 c-30 0 -50 5
-53 13 -2 6 -24 84 -50 172 -25 88 -48 167 -51 175 -5 13 -35 -76 -99 -302
l-16 -58 -49 0 -49 0 -21 73 c-12 39 -46 154 -76 255 -30 101 -54 187 -54 193
0 6 23 9 57 7 l56 -3 24 -90z m1035 -155 c48 -135 87 -253 87 -263 1 -16 -6
-18 -56 -15 l-57 3 -16 50 c-23 76 -21 75 -120 75 l-88 0 -22 -65 -22 -65 -54
0 c-30 0 -54 5 -54 10 0 6 42 125 92 266 l93 255 65 -3 65 -3 87 -245z m550
222 c44 -27 78 -92 78 -149 0 -53 -34 -102 -86 -128 l-42 -20 74 -97 c41 -54
74 -100 74 -103 0 -3 -28 -5 -62 -5 l-63 1 -69 99 c-54 79 -74 100 -92 100
-24 0 -24 -1 -24 -100 l0 -100 -55 0 -55 0 0 258 c0 142 3 262 8 266 4 4 68 6
142 4 120 -3 139 -6 172 -26z"/>
<path d="M617 3446 c-49 -18 -122 -75 -157 -123 -64 -90 -60 5 -60 -1398 0
-1234 1 -1276 19 -1325 38 -99 115 -168 210 -189 31 -6 550 -10 1462 -11 1542
-2 1444 -5 1538 55 44 27 91 92 113 154 10 28 13 303 13 1316 l0 1280 -23 56
c-30 76 -81 132 -150 166 l-57 28 -1435 2 c-1188 2 -1442 0 -1473 -11z m648
-332 c133 -40 212 -116 252 -239 18 -56 32 -440 17 -455 -5 -4 -82 -6 -171 -3
l-163 6 0 149 c0 166 -8 197 -58 217 -72 30 -140 6 -166 -59 -17 -42 -23 -251
-9 -321 8 -42 104 -140 283 -289 69 -58 153 -132 187 -165 93 -92 96 -103 101
-485 2 -195 -1 -351 -8 -410 -30 -261 -173 -360 -499 -347 -151 5 -201 21
-271 84 -121 109 -136 175 -132 591 l2 182 165 0 165 0 0 -208 c0 -182 2 -211
18 -242 39 -71 132 -89 183 -34 21 22 25 39 30 122 9 133 10 309 2 368 -5 44
-13 56 -72 113 -36 35 -141 128 -233 207 -185 159 -209 186 -241 270 -21 56
-22 74 -21 319 0 154 5 284 12 319 18 91 55 161 119 225 80 79 129 100 250
109 123 10 159 7 258 -24z m937 1 c95 -20 150 -46 209 -101 57 -54 93 -110
107 -169 15 -61 24 -402 12 -425 -10 -19 -22 -20 -170 -20 l-160 0 0 164 c0
149 -2 166 -20 189 -36 46 -112 55 -166 20 -39 -25 -49 -68 -49 -218 0 -124 2
-144 22 -180 24 -45 183 -203 319 -317 128 -108 189 -177 210 -240 16 -47 18
-95 19 -428 l0 -375 -32 -67 c-58 -123 -156 -200 -294 -233 -229 -54 -442 32
-525 211 -34 73 -45 185 -42 429 l3 210 158 3 157 3 0 -203 c0 -178 3 -208 19
-245 40 -88 153 -99 201 -21 18 31 20 51 20 266 0 172 -3 241 -13 265 -16 38
-100 117 -251 237 -265 210 -296 272 -296 590 1 353 22 441 129 543 121 116
255 150 433 112z m1043 -20 c143 -47 212 -109 256 -230 20 -54 22 -81 23 -260
l1 -200 -160 0 -160 0 -5 160 c-3 88 -9 168 -13 177 -11 21 -67 48 -101 48
-15 0 -42 -7 -62 -15 -55 -23 -64 -58 -64 -240 0 -201 -2 -197 200 -360 164
-132 273 -230 300 -271 61 -87 65 -122 65 -519 l0 -360 -31 -66 c-73 -153
-210 -241 -397 -256 -175 -14 -342 80 -406 229 -33 74 -44 182 -45 413 l-1
220 155 0 155 0 5 -215 c5 -234 8 -247 63 -280 48 -30 100 -26 139 9 l33 29 3
226 c2 137 -1 240 -8 263 -14 52 -135 183 -205 222 -80 45 -255 218 -293 289
-43 81 -52 152 -52 434 0 229 2 252 22 305 28 77 56 120 108 167 113 102 309
135 475 81z"/>
<path d="M7428 3080 c-122 -37 -189 -192 -143 -330 83 -250 402 -190 405 76 1
124 -66 228 -163 252 -52 13 -61 14 -99 2z"/>
<path d="M5063 860 c-50 -30 -76 -90 -71 -167 6 -98 60 -156 147 -157 57 -1
94 21 125 74 28 47 28 143 0 190 -44 75 -133 102 -201 60z"/>
<path d="M7507 767 c-40 -123 -47 -111 62 -108 l29 1 -29 92 c-16 50 -30 92
-32 94 -1 2 -15 -34 -30 -79z"/>
<path d="M8030 805 l0 -75 53 1 c73 1 99 11 116 41 12 21 12 30 2 56 -15 35
-56 52 -128 52 l-43 0 0 -75z"/>
</g>
</svg>
